<svg version="1.2" baseProfile="tiny-ps" xmlns="http://www.w3.org/2000/svg" viewBox="0 0 3170 589" width="3170" height="589">
	<title>4242534</title>
	<style>
		tspan { white-space:pre }
		.shp0 { fill: #fefeff } 
		.shp1 { fill: #1b449c } 
		.shp2 { fill: #4d4d4f } 
	</style>
	<g id="Background">
		<path id="Path 0" class="shp0" d="M0 294.5L0 589L3170 589C3169.84 536.78 3169.77 535.81 3168.44 542C3167.67 545.58 3165.36 551.88 3163.31 556C3160.99 560.68 3157.5 565.58 3154.04 569.04C3150.99 572.08 3145.57 576.23 3142 578.25C3138.43 580.27 3131.9 582.9 3127.5 584.09C3121.3 585.77 3116.58 586.27 3106.5 586.31C3097.37 586.34 3091.42 585.84 3086.5 584.62C3082.65 583.67 3076.57 581.49 3073 579.78C3068.8 577.78 3064.15 574.35 3059.85 570.09C3055.08 565.37 3052.18 561.37 3049.62 556C3047.65 551.88 3045.78 547.15 3045.46 545.5C3044.89 542.51 3044.94 542.48 3057.19 536.93L3069.5 531.37C3074.6 542.06 3077.39 545.91 3080.13 548.28C3082.53 550.36 3086.41 552.95 3088.75 554.03C3091.09 555.11 3096.26 556.52 3100.25 557.16C3105.84 558.05 3108.99 558.04 3114 557.09C3117.57 556.42 3122.3 554.82 3124.5 553.53C3126.7 552.24 3129.49 550.14 3130.69 548.85C3131.9 547.56 3133.89 544.25 3135.12 541.5C3136.65 538.08 3137.38 534.45 3137.43 530C3137.49 524.73 3137.01 522.65 3134.89 519C3133.45 516.52 3129.85 512.36 3126.89 509.74C3123.39 506.65 3115 501.66 3103 495.52C3092.82 490.32 3080.94 483.68 3076.6 480.78C3072.25 477.88 3066.18 472.8 3063.09 469.5C3060.01 466.2 3056.42 461.25 3055.12 458.5C3053.83 455.75 3052.07 450.13 3051.22 446C3049.94 439.77 3049.88 436.98 3050.83 429.5C3051.67 422.87 3052.9 418.59 3055.48 413.25C3057.75 408.58 3061.05 403.96 3064.76 400.25C3067.93 397.09 3073.22 393.06 3076.51 391.3C3079.81 389.53 3086.1 387.17 3090.5 386.04C3095.93 384.64 3101.64 383.98 3108.25 383.99C3113.61 383.99 3121.49 384.68 3125.75 385.5C3130.01 386.33 3136.76 388.58 3140.75 390.5C3145.1 392.6 3150.14 396.1 3153.34 399.25C3156.28 402.14 3159.88 406.86 3161.34 409.75C3162.8 412.64 3164 415.23 3164 415.5C3164 415.77 3158.6 418.7 3152 422L3140 428C3127.72 415.48 3125.5 413.94 3121 412.61C3117.97 411.71 3113.25 410.98 3110.5 410.98C3107.75 410.98 3103.03 411.7 3100 412.59C3095.95 413.77 3093.29 415.42 3089.92 418.85C3086.29 422.53 3085.1 424.64 3084.15 429C3083.5 432.02 3083.25 436.07 3083.61 438C3083.97 439.93 3084.88 442.74 3085.63 444.25C3086.39 445.76 3088.46 448.64 3090.25 450.65C3092.04 452.65 3095.97 455.96 3099 458C3102.03 460.04 3112.6 465.78 3122.5 470.76C3132.4 475.74 3144.1 482.46 3148.5 485.7C3152.9 488.95 3158.13 493.82 3160.12 496.55C3162.11 499.27 3164.47 502.96 3165.37 504.75C3166.27 506.54 3167.64 510.59 3168.42 513.75C3169.65 518.76 3169.84 486.01 3169.92 259.75L3170 0L0 0L0 294.5Z" />
		<path id="Path 1" class="shp1" d="M167.5 11.66C164.75 11.83 154.4 12.45 144.5 13.04C134.6 13.63 119.53 14.77 111 15.56C102.47 16.35 87.4 18.35 77.5 20C67.6 21.65 52.98 24.53 45 26.39C37.02 28.26 24.67 31.52 17.56 33.64C10.44 35.76 3.91 38.05 3.06 38.72C1.8 39.7 3.24 39.94 10.5 39.96C15.45 39.98 25.35 39.25 32.5 38.35L45.5 36.7L56.5 41.38C82.85 38.7 99.5 37.41 110.5 36.78C125.63 35.92 135.61 35.94 151.5 36.83C163.05 37.48 182.63 39.13 195 40.5C207.38 41.88 226.05 44.12 236.5 45.49C246.95 46.87 262.48 49.13 271 50.53C279.52 51.93 292.35 54.36 299.5 55.93C306.65 57.5 317.45 60.2 323.5 61.94C329.55 63.68 339.23 67 345 69.33C350.77 71.65 359.32 75.77 364 78.47C369.72 81.77 375.29 86.18 381.04 91.94C386.23 97.15 390.82 102.85 392.74 106.5C394.48 109.8 396.84 116.1 397.99 120.5C399.13 124.92 400.16 132.31 400.27 137C400.45 144.39 400.13 146.22 397.83 151C396.37 154.05 393.01 158.51 390.29 161C387.6 163.47 381.82 167.36 377.45 169.63C373.08 171.91 366.13 174.91 362 176.31C357.88 177.71 350.9 179.76 346.5 180.87C342.1 181.97 333.55 183.8 327.5 184.93C321.45 186.06 308.18 188.08 298 189.43C287.82 190.77 272.52 192.58 264 193.43C255.48 194.29 235.45 196.12 219.5 197.5C203.55 198.88 184.2 200.72 176.5 201.58C168.8 202.44 156.2 204.2 148.5 205.49C140.8 206.79 130 208.98 124.5 210.37C119 211.76 109.78 214.54 104 216.55C98.22 218.55 88.33 222.85 82 226.09C75.67 229.34 66.61 234.81 61.86 238.25C57.11 241.69 51.49 246.09 49.36 248.04C47.24 249.99 43.54 253.81 41.14 256.54C38.75 259.27 35.53 263.98 34 267C32.47 270.02 30.42 275.2 29.44 278.5C28.3 282.38 27.69 287.68 27.73 293.5C27.76 298.45 28.53 305.65 29.45 309.5C30.36 313.35 32.8 320.1 34.86 324.5C36.92 328.9 40.12 334.75 41.97 337.5C43.83 340.25 48.3 346.03 51.92 350.35C55.54 354.66 62.1 361.33 66.5 365.16C70.9 368.99 80.13 375.89 87 380.49C93.88 385.1 108.5 393.87 119.5 400C130.5 406.12 160.43 421.58 186 434.36C211.57 447.14 242.85 462.48 255.5 468.44C268.15 474.41 289.3 484.21 302.5 490.23C315.7 496.25 331.79 503.38 338.25 506.08C344.71 508.79 351.13 511 352.5 511C354.26 511 355.17 510.33 355.57 508.75C355.88 507.51 355.42 502.68 354.55 498C353.68 493.32 352.96 488.15 352.94 486.5C352.93 484.85 353.8 482.38 354.87 481C356.56 478.84 357.57 478.52 362.16 478.65C365.1 478.74 371.32 480.04 376 481.54C380.68 483.04 395.3 489.75 408.5 496.44C421.7 503.13 446 515.18 462.5 523.21C479 531.25 503.75 543.08 517.5 549.51C531.25 555.94 546.77 562.97 552 565.14C558.45 567.82 562.38 568.91 564.25 568.54C565.76 568.24 567.26 567.21 567.57 566.25C567.91 565.21 566.08 560.55 563.07 554.75C560.27 549.36 558 543.66 558 542C558 539.88 558.66 538.68 560.25 537.91C561.95 537.09 564.08 537.23 569 538.46C572.58 539.36 579.77 541.91 585 544.13C590.23 546.35 607.1 554.46 622.5 562.15C642.31 572.04 652.84 576.72 658.5 578.15C662.9 579.26 669.65 580.45 673.5 580.79C677.35 581.13 681.06 581.32 681.75 581.21C682.44 581.09 683.67 581 684.5 581C685.33 581 686 580.55 686 580C686 579.45 681.61 576.15 676.25 572.66C670.89 569.17 658.17 561.38 648 555.34C637.83 549.29 613.75 535.33 594.5 524.3C575.25 513.27 539.02 492.79 514 478.78C488.98 464.78 456.13 446.56 441 438.3C425.88 430.03 385.6 409.28 351.5 392.17C317.4 375.06 272.63 352.46 252 341.94C231.38 331.42 207.07 318.74 198 313.77C188.93 308.8 180.49 303.89 179.25 302.86L177 301C180.49 299.63 185.78 298.52 191 297.64C196.22 296.76 211.3 294.92 224.5 293.55C237.7 292.18 266.95 289.23 289.5 287.01C312.05 284.79 338.6 282.05 348.5 280.92C358.4 279.8 372.8 277.99 380.5 276.91C388.2 275.82 400.57 273.8 408 272.41C415.43 271.03 427.8 268.29 435.5 266.34C443.2 264.38 455.13 260.76 462 258.29C468.88 255.82 479.68 251.22 486 248.08C492.32 244.93 500.2 240.64 503.5 238.55C506.8 236.46 511.75 232.86 514.5 230.53C517.25 228.21 522.05 222.98 525.16 218.91C528.28 214.83 532.2 208.8 533.87 205.5C535.54 202.2 537.85 196.8 539 193.5C540.16 190.2 541.72 184.57 542.47 181C543.23 177.43 544.15 170.9 544.53 166.5C544.91 162.07 544.72 154.48 544.12 149.5C543.52 144.55 542.12 136.9 540.99 132.5C539.87 128.1 536.98 120.45 534.57 115.5C532.15 110.55 527.95 103.58 525.24 100C522.52 96.42 517.19 90.56 513.4 86.97C509.6 83.38 501.55 77.15 495.5 73.12C489.45 69.1 476.85 62.05 467.5 57.47C458.15 52.88 444.43 46.88 437 44.13C429.57 41.38 416.3 37.07 407.5 34.54C398.7 32.02 384.3 28.41 375.5 26.53C366.7 24.65 354.1 22.2 347.5 21.08C340.9 19.97 330.32 18.39 324 17.57C317.68 16.75 305.07 15.38 296 14.54C286.93 13.7 271.85 12.56 262.5 12.01C253.15 11.47 229.07 11.1 209 11.19C188.93 11.28 170.25 11.5 167.5 11.66Z" />
		<path id="Path 2" class="shp2" d="M1828.5 24.64C1826.85 24.9 1821.67 26.02 1817 27.12C1811.91 28.31 1804.9 31 1799.53 33.81C1793.33 37.06 1788.14 40.81 1782.67 46C1778.29 50.16 1772.85 56.62 1770.45 60.5C1768.08 64.35 1765 70.88 1763.63 75C1762.25 79.13 1760.65 85.42 1760.07 89C1759.49 92.58 1759.01 99.44 1759.01 104.25C1759 109.06 1759.68 116.49 1760.5 120.75C1761.33 125.01 1763.58 131.76 1765.5 135.75C1767.6 140.09 1771.11 145.14 1774.25 148.34C1778.22 152.39 1782.31 155.06 1791 159.3C1798.17 162.8 1809.46 167.04 1821 170.57C1831.17 173.69 1842.2 177.56 1845.5 179.18C1848.8 180.8 1852.78 183.34 1854.34 184.81C1855.9 186.29 1858.04 189.19 1859.09 191.25C1860.14 193.31 1861 196.46 1860.99 198.25C1860.99 200.04 1860.54 203.19 1859.99 205.25C1859.45 207.31 1857.54 210.63 1855.75 212.63C1853.96 214.63 1850.25 217.41 1847.5 218.82C1843.37 220.94 1840.76 221.46 1832.5 221.79C1825.31 222.08 1820.67 221.73 1816 220.53C1812.42 219.62 1805.79 217.1 1801.25 214.93C1796.71 212.77 1789.17 208.07 1784.5 204.5L1776 198C1770.79 207.69 1764.88 218.82 1759.52 229C1750.11 246.84 1749.83 247.56 1751.63 249.16C1752.66 250.07 1757.55 253.11 1762.5 255.92C1767.45 258.73 1774.65 262.34 1778.5 263.95C1782.35 265.55 1789.33 267.97 1794 269.34C1798.67 270.7 1807.22 272.53 1813 273.4C1818.78 274.27 1827.78 274.98 1833 274.98C1838.22 274.99 1846.78 274.34 1852 273.55C1857.22 272.76 1864.65 271.14 1868.5 269.95C1872.35 268.77 1878.65 266.22 1882.5 264.3C1886.35 262.38 1892.2 258.9 1895.5 256.56C1898.8 254.22 1904.1 249.42 1907.28 245.9C1910.46 242.38 1914.6 236.35 1916.48 232.5C1918.36 228.65 1920.82 222.13 1921.94 218C1923.07 213.88 1924.39 205.55 1924.89 199.5C1925.42 193.03 1925.43 185.21 1924.91 180.5C1924.42 176.1 1923.28 170.25 1922.37 167.5C1921.47 164.75 1919.94 160.93 1918.98 159C1918.02 157.07 1915.38 153.14 1913.12 150.25C1910.85 147.36 1906.19 142.92 1902.75 140.37C1899.31 137.82 1892.9 133.98 1888.5 131.83C1884.1 129.68 1871.95 125.18 1861.5 121.82C1851.05 118.47 1840.47 114.72 1838 113.49C1835.53 112.26 1831.98 109.96 1830.12 108.38C1828.26 106.79 1826.12 104.26 1825.37 102.75C1824.61 101.24 1824.01 97.86 1824.03 95.25C1824.05 92.4 1824.81 89.3 1825.93 87.5C1826.96 85.85 1829.53 83.26 1831.65 81.75C1833.77 80.24 1837.75 78.32 1840.5 77.49C1843.25 76.66 1847.97 75.97 1851 75.98C1854.03 75.98 1859.88 76.83 1864 77.86C1868.13 78.9 1873.53 80.76 1876 82C1878.47 83.23 1882.64 85.76 1885.25 87.62C1887.86 89.48 1890.34 90.99 1890.75 90.99C1891.16 90.98 1896.78 80.74 1903.22 68.24C1909.67 55.73 1914.96 44.94 1914.97 44.25C1914.99 43.56 1910.84 41.03 1905.75 38.62C1900.66 36.21 1892.11 32.83 1886.75 31.12C1881.39 29.4 1873.06 27.29 1868.25 26.43C1863.44 25.57 1853.2 24.71 1845.5 24.51C1837.8 24.32 1830.15 24.38 1828.5 24.64ZM2009.5 25.02C2006.2 25.52 1999.67 27.18 1995 28.7C1990.33 30.21 1984.03 32.96 1981 34.8C1977.97 36.64 1973.07 40.03 1970.09 42.32C1967.11 44.62 1962.48 49.2 1959.79 52.5C1957.1 55.8 1953.13 62.1 1950.96 66.5C1948.79 70.9 1946.29 77.2 1945.4 80.5C1944.46 84.02 1943.59 92.29 1943.3 100.5C1942.94 111 1943.21 116.37 1944.4 122C1945.27 126.13 1947.42 132.43 1949.17 136C1951.1 139.94 1954.74 144.9 1958.42 148.61C1963.03 153.23 1966.81 155.82 1974 159.26C1979.22 161.76 1990.92 166.15 2000 169C2009.08 171.85 2019.42 175.26 2023 176.57C2026.58 177.88 2031.64 180.32 2034.25 181.98C2036.86 183.64 2040.08 186.69 2041.41 188.75C2042.73 190.81 2044.12 194.07 2044.5 196C2044.88 197.96 2044.62 201.7 2043.91 204.5C2043.02 208.01 2041.42 210.71 2038.57 213.56C2036.16 215.97 2032.16 218.52 2028.75 219.81C2024.43 221.46 2020.82 222 2014.25 222.01C2009.44 222.01 2002.8 221.33 1999.5 220.5C1996.2 219.67 1989.45 216.99 1984.5 214.54C1979.55 212.09 1971.9 207.38 1967.5 204.08C1963.1 200.78 1959.45 198.17 1959.39 198.29C1959.33 198.41 1954.89 206.82 1949.52 217C1944.16 227.18 1938.24 238.31 1936.38 241.75L1933 248C1942.69 254.1 1949.55 257.86 1954.5 260.3C1959.45 262.75 1967.1 265.97 1971.5 267.47C1975.9 268.97 1983.55 271.05 1988.5 272.1C1993.45 273.15 2002.9 274.29 2009.5 274.64C2016.57 275.01 2025.61 274.8 2031.5 274.13C2037 273.49 2044.88 272.06 2049 270.94C2053.13 269.82 2060.55 266.94 2065.5 264.54C2070.45 262.14 2077.43 257.97 2081 255.28C2084.57 252.58 2089.68 247.7 2092.34 244.44C2095.01 241.17 2098.72 235.35 2100.59 231.5C2102.46 227.65 2104.98 220.68 2106.19 216C2107.99 209 2108.39 204.59 2108.44 191C2108.49 177.32 2108.18 173.56 2106.61 169C2105.57 165.97 2103.71 161.47 2102.47 159C2101.24 156.53 2098.49 152.39 2096.36 149.81C2094.24 147.24 2089.8 143.03 2086.5 140.46C2083.2 137.9 2076.45 133.86 2071.5 131.5C2066.55 129.13 2054.4 124.62 2044.5 121.48C2034.6 118.33 2024.03 114.52 2021 113C2017.97 111.49 2013.81 108.39 2011.75 106.12C2009.41 103.55 2007.77 100.59 2007.38 98.25C2007.04 96.19 2007.23 92.92 2007.8 91C2008.38 89.08 2010.57 85.96 2012.67 84.07C2014.78 82.19 2018.53 79.75 2021 78.66C2023.5 77.56 2028.61 76.48 2032.5 76.24C2036.98 75.96 2042.02 76.4 2046.5 77.46C2050.35 78.37 2056.2 80.39 2059.5 81.96C2062.8 83.53 2067.53 86.37 2070 88.28L2074.5 91.75C2093.45 55.13 2098.98 44.27 2099.02 44C2099.05 43.73 2095.13 41.53 2090.29 39.13C2085.46 36.72 2077 33.26 2071.5 31.42C2066 29.59 2057.45 27.37 2052.5 26.48C2047.55 25.59 2037.2 24.69 2029.5 24.49C2021.8 24.28 2012.8 24.52 2009.5 25.02ZM2742.5 25.09C2738.65 25.62 2732.8 26.74 2729.5 27.57C2726.2 28.41 2719.45 30.63 2714.5 32.51C2709.55 34.39 2701.68 38.22 2697 41.03C2692.32 43.83 2686.25 47.86 2683.5 49.98C2680.75 52.09 2674.41 58.03 2669.42 63.16C2664.42 68.3 2657.68 76.55 2654.45 81.5C2651.22 86.45 2646.88 94.33 2644.81 99C2642.74 103.67 2639.9 112 2638.5 117.5C2637.1 123 2635.58 132.68 2635.11 139C2634.65 145.32 2634.65 155.22 2635.1 161C2635.56 166.78 2636.43 173.97 2637.03 177C2637.63 180.03 2639.29 186.1 2640.71 190.5C2642.12 194.9 2645.19 202.32 2647.51 207C2649.84 211.68 2654.44 219.1 2657.73 223.5C2661.03 227.9 2667.5 235.03 2672.11 239.34C2676.72 243.65 2684.1 249.57 2688.5 252.48C2692.9 255.4 2700.1 259.58 2704.5 261.76C2708.9 263.95 2715.88 266.88 2720 268.27C2724.13 269.66 2731.32 271.54 2736 272.45C2740.68 273.36 2749.22 274.38 2755 274.7C2761.21 275.05 2768.97 274.8 2774 274.09C2778.68 273.42 2787.9 271.57 2794.5 269.96C2801.1 268.36 2808.86 266.36 2811.75 265.52L2817 264L2817.09 189.5C2806.17 199.96 2800.64 204.35 2797.75 206.01C2794.86 207.66 2788.9 210.22 2784.5 211.68C2777.42 214.04 2774.95 214.35 2763 214.35C2751.1 214.35 2748.55 214.03 2741.5 211.71C2737.1 210.26 2731.25 207.65 2728.5 205.92C2725.75 204.19 2721.7 201.33 2719.5 199.57C2717.3 197.81 2713.11 192.79 2710.18 188.43C2706.97 183.64 2703.83 177.34 2702.25 172.5C2699.93 165.39 2699.64 162.89 2699.62 150C2699.6 136.7 2699.82 134.84 2702.37 127.5C2703.9 123.1 2706.52 117.25 2708.19 114.5C2709.87 111.75 2713.13 107.25 2715.44 104.5C2717.75 101.75 2722.76 97.4 2726.57 94.83C2730.38 92.27 2737.1 88.92 2741.5 87.4C2748.54 84.97 2750.99 84.63 2762 84.6C2770.75 84.58 2776.45 85.09 2781 86.3C2784.57 87.24 2790.88 89.69 2795 91.73C2799.99 94.19 2804.84 97.7 2809.5 102.22C2813.35 105.95 2816.61 109 2816.75 109C2816.89 109 2817 92.58 2817 72.5L2817 36C2804.99 31.5 2796.1 28.98 2789.5 27.5C2780.41 25.45 2774.11 24.72 2763.5 24.46C2755.8 24.27 2746.35 24.55 2742.5 25.09ZM767.57 30.59C767.02 31.05 766.73 78.12 766.85 148.92C766.96 213.59 767.38 267.06 767.77 267.74C768.33 268.69 775.56 268.93 799 268.74L829.5 268.5C829.88 198.75 830.1 178.4 830.24 178.27C830.38 178.14 843.55 198.48 859.5 223.48L888.5 268.92C947.01 268.98 964.18 268.66 964.39 268.25C964.61 267.84 948.22 245.9 927.96 219.5C907.71 193.1 891.22 171.4 891.32 171.29C891.42 171.17 894.2 170.35 897.5 169.47C900.8 168.59 906.2 166.46 909.5 164.72C913.08 162.84 918.75 158.33 923.55 153.54C929.61 147.49 932.51 143.64 935.24 138C937.23 133.88 939.65 127.57 940.62 124C941.89 119.29 942.37 113.64 942.39 103.5C942.4 93.47 941.91 87.52 940.66 82.5C939.7 78.65 937.25 72.16 935.21 68.08C933.17 64 928.99 57.93 925.91 54.58C922.84 51.24 917.44 46.6 913.91 44.29C910.39 41.97 904.58 38.88 901 37.42C897.42 35.96 890.45 33.85 885.5 32.73C877.21 30.86 872.23 30.66 822.5 30.27C792.8 30.03 768.08 30.18 767.57 30.59ZM987.01 149.49L987 269L1122.5 268.5L1123 216L1049 216L1049 175L1119 175L1119 122L1049 122L1049 83L1123 83L1122.5 30.5L987.01 29.99L987.01 149.49ZM1150 149.5L1150 269L1212 269L1212.5 122.84L1326 269L1388 269L1388 30L1326 30C1326 141.6 1325.66 174.2 1325.25 174.44C1324.84 174.68 1299.08 142.26 1268 102.41L1211.5 29.94L1150 30L1150 149.5ZM1449.68 148.75C1424.58 214.06 1404.03 267.84 1404.02 268.25C1404.01 268.66 1418.73 268.89 1436.74 268.75L1469.47 268.5L1485.77 227.5L1571.2 227.5L1586.56 268.5C1644.93 268.95 1652 268.73 1651.98 267.75C1651.97 267.06 1632.88 215.88 1609.55 154C1586.23 92.13 1566.21 38.91 1565.07 35.75L1563 30L1495.33 30L1449.68 148.75ZM1669 149.5L1669 269L1731 269L1731 30L1669 30L1669 149.5ZM2197.09 32.24C2196.6 33.48 2176.23 86.65 2151.83 150.39C2127.42 214.14 2107.36 266.9 2107.23 267.64C2107.04 268.76 2112.71 269 2139.5 269L2172 269L2188.5 226.95L2273 227C2275.07 231.26 2278.78 240.73 2282.59 250.79L2289.5 269.07C2340.26 269.02 2354.97 268.66 2354.94 268.25C2354.91 267.84 2334.77 214.18 2310.18 149L2265.49 30.5L2197.99 29.97L2197.09 32.24ZM2379 149.5L2379 269L2441 269C2441 157.4 2441.34 124.79 2441.75 124.53C2442.16 124.28 2467.93 156.69 2499 196.56L2555.5 269.05L2617 269L2617 30L2554.97 30L2554.5 176.05L2441 30L2379 30L2379 149.5ZM2844.01 149.49L2844 269L2979.5 268.5L2980 216L2906 216L2906 175L2976 175L2976 122L2906 122L2906 83L2980 83L2979.5 30.5L2844.01 29.99L2844.01 149.49Z" />
		<path id="Path 3" class="shp0" d="M829.93 107.49L829.5 137.26C847.49 136.39 853.96 135.43 858.25 134.1C863.61 132.43 866.11 130.92 870.4 126.75C874.04 123.22 876.16 120.19 876.9 117.5C877.5 115.3 877.99 110.8 877.99 107.5C877.99 104.2 877.5 99.7 876.9 97.5C876.16 94.81 874.04 91.78 870.4 88.25C866.11 84.08 863.62 82.57 858.25 80.91C854.14 79.64 847.37 78.6 840.93 78.27L830.36 77.72L829.93 107.49ZM1523.42 119.25C1520.83 127.09 1515.16 143.85 1510.83 156.5C1506.5 169.15 1502.97 179.61 1502.98 179.75C1502.99 179.89 1514.47 180 1528.5 180C1542.53 180 1554 179.66 1554 179.25C1554 178.84 1548.63 161.96 1542.06 141.75C1535.5 121.54 1529.68 105 1529.13 105C1528.58 105 1526.01 111.41 1523.42 119.25ZM2230.08 107.61C2229.36 109.2 2223.64 125.8 2217.38 144.5C2211.12 163.2 2206 178.84 2206 179.25C2206 179.66 2217.25 180 2231 180C2250.33 180 2256 179.72 2256 178.75C2256 178.06 2250.59 161.3 2243.97 141.5C2237.35 121.7 2231.81 105.33 2231.66 105.11C2231.52 104.9 2230.8 106.02 2230.08 107.61Z" />
		<path id="Path 4" class="shp2" d="M1179.25 384.5C1178.14 386.7 1163.4 418.2 1146.5 454.5C1129.6 490.8 1109.51 534 1101.86 550.5C1094.21 567 1088.08 580.56 1088.23 580.63C1088.38 580.7 1095.69 580.93 1104.48 581.13L1120.45 581.5C1132.11 555.85 1137.19 544.72 1139.25 540.2L1143 532L1219.5 531.96L1241 581C1266.58 581.39 1274.01 581.27 1274.03 581C1274.04 580.73 1254.18 537.75 1229.9 485.5C1205.61 433.25 1184.74 388.25 1183.51 385.5L1181.27 380.5L1179.25 384.5ZM1778.99 480.75L1779 581L1808 581L1808.5 448.07C1816.25 458.07 1843.7 485.2 1874.5 514.8C1905.3 544.41 1935 572.98 1940.5 578.29C1946 583.61 1950.85 587.63 1951.28 587.23C1951.71 586.83 1952.04 541.84 1952.03 487.25L1952 388L1923 388C1923.04 489.91 1922.82 519.84 1922.53 520.25C1922.24 520.66 1920.38 519.09 1918.4 516.75C1916.41 514.41 1911.58 509.16 1907.65 505.09C1903.72 501.01 1875.75 473.82 1845.5 444.67C1815.25 415.52 1787.91 389.16 1784.74 386.09L1778.98 380.5L1778.99 480.75ZM2431 386.1C2426.88 387.19 2421.27 389.3 2418.54 390.79C2415.81 392.28 2410.86 396.02 2407.54 399.1C2404.19 402.21 2400.08 407.34 2398.31 410.6C2396.56 413.85 2394.42 419.2 2393.56 422.5C2392.7 425.8 2392 432.1 2392.01 436.5C2392.02 440.9 2392.63 446.75 2393.36 449.5C2394.1 452.25 2395.84 456.75 2397.25 459.5C2398.65 462.25 2401.75 466.7 2404.15 469.39C2406.54 472.08 2413 477.26 2418.49 480.89C2423.99 484.53 2435.35 490.99 2443.74 495.25C2452.14 499.51 2460.8 504.13 2463 505.5C2465.2 506.88 2468.8 509.8 2471 512C2473.2 514.2 2475.89 517.91 2476.98 520.25C2478.25 522.98 2478.96 526.64 2478.97 530.5C2478.98 534.73 2478.29 537.98 2476.63 541.5C2475.34 544.25 2472.99 547.8 2471.39 549.4C2469.8 550.99 2466.03 553.45 2463 554.87C2458.25 557.09 2456.21 557.43 2448 557.36C2440.62 557.29 2437.16 556.76 2432.5 554.97C2428.28 553.35 2424.85 551.01 2420.92 547.08C2417.18 543.35 2414.7 539.78 2413.42 536.3L2411.5 531.11L2386.82 542.5C2387.7 547.92 2389.49 552.65 2391.37 556.5C2393.61 561.09 2396.97 565.69 2401.14 569.86C2405.36 574.08 2409.85 577.35 2414.5 579.6C2418.35 581.46 2424.43 583.75 2428 584.69C2432.57 585.89 2438.37 586.39 2447.5 586.38C2456.46 586.36 2462.52 585.82 2467 584.65C2470.57 583.71 2476.88 581.34 2481 579.37C2486.02 576.98 2490.58 573.76 2494.79 569.65C2498.54 565.99 2502.45 560.87 2504.46 557C2506.31 553.42 2508.59 547.58 2509.51 544C2510.43 540.42 2511.23 533.45 2511.28 528.5C2511.34 523.55 2510.78 517.02 2510.05 514C2509.32 510.98 2507.59 506.25 2506.21 503.5C2504.82 500.75 2501.39 496.09 2498.59 493.15C2495.79 490.21 2490.13 485.54 2486 482.78C2481.88 480.01 2471.97 474.59 2464 470.72C2456.03 466.85 2446.8 461.99 2443.5 459.93C2440.2 457.87 2435.36 453.89 2432.75 451.09C2430.14 448.29 2427.32 444.43 2426.5 442.5C2425.68 440.57 2425 436.86 2425.01 434.25C2425.02 431.43 2425.95 427.47 2427.32 424.5C2428.58 421.75 2431.16 418.3 2433.06 416.84C2434.95 415.38 2438.97 413.39 2442 412.44C2445.92 411.19 2449.5 410.83 2454.5 411.17C2459.73 411.52 2462.86 412.38 2466.88 414.57C2469.83 416.18 2473.68 419.07 2475.42 421C2477.16 422.93 2479.12 425.4 2479.76 426.5C2480.89 428.43 2481.36 428.28 2492.57 422.5C2498.98 419.2 2504.39 415.94 2504.61 415.25C2504.82 414.56 2503.76 411.67 2502.25 408.82C2500.74 405.97 2497.25 401.42 2494.5 398.72C2491.64 395.92 2486.5 392.38 2482.5 390.48C2478.65 388.65 2472.01 386.44 2467.75 385.57C2463.38 384.69 2455.31 384.02 2449.25 384.06C2441.86 384.09 2436.16 384.73 2431 386.1ZM3090 386.1C3085.88 387.19 3079.81 389.53 3076.51 391.29C3073.22 393.06 3067.93 397.09 3064.76 400.25C3061.05 403.96 3057.75 408.58 3055.48 413.25C3052.9 418.59 3051.67 422.87 3050.83 429.5C3049.88 436.98 3049.94 439.77 3051.22 446C3052.07 450.13 3053.83 455.75 3055.12 458.5C3056.42 461.25 3060.01 466.2 3063.09 469.5C3066.18 472.8 3072.25 477.88 3076.6 480.78C3080.94 483.68 3092.82 490.32 3103 495.52C3115 501.66 3123.39 506.65 3126.89 509.74C3129.85 512.36 3133.45 516.52 3134.89 519C3137.01 522.65 3137.49 524.73 3137.43 530C3137.38 534.45 3136.65 538.08 3135.12 541.5C3133.89 544.25 3131.9 547.56 3130.69 548.85C3129.49 550.14 3126.7 552.24 3124.5 553.53C3122.3 554.82 3117.57 556.42 3114 557.09C3108.99 558.04 3105.84 558.05 3100.25 557.16C3096.26 556.52 3091.09 555.11 3088.75 554.03C3086.41 552.95 3082.53 550.36 3080.13 548.28C3077.39 545.91 3074.6 542.06 3072.63 537.93L3069.5 531.37C3044.94 542.48 3044.89 542.51 3045.46 545.5C3045.78 547.15 3047.65 551.88 3049.62 556C3052.18 561.37 3055.08 565.37 3059.85 570.09C3064.15 574.35 3068.8 577.78 3073 579.78C3076.57 581.49 3082.65 583.67 3086.5 584.62C3091.42 585.84 3097.37 586.34 3106.5 586.31C3116.58 586.27 3121.3 585.77 3127.5 584.09C3131.9 582.9 3138.43 580.27 3142 578.25C3145.57 576.23 3150.99 572.08 3154.04 569.04C3157.51 565.58 3160.98 560.69 3163.31 556C3165.35 551.88 3167.74 545.13 3168.61 541C3169.69 535.88 3170.03 530.65 3169.68 524.5C3169.41 519.55 3168.46 513.14 3167.59 510.25C3166.72 507.36 3164.06 502.19 3161.69 498.75C3159.09 494.99 3154.41 490.2 3149.94 486.74C3145.52 483.32 3134.78 477.06 3123.5 471.34C3113.05 466.03 3102.03 460.03 3099 457.99C3095.97 455.96 3092.04 452.65 3090.25 450.65C3088.46 448.64 3086.39 445.76 3085.63 444.25C3084.88 442.74 3083.97 439.93 3083.61 438C3083.25 436.07 3083.5 432.02 3084.15 429C3085.1 424.64 3086.29 422.53 3089.92 418.85C3093.29 415.42 3095.95 413.77 3100 412.59C3103.03 411.7 3107.75 410.98 3110.5 410.98C3113.25 410.98 3117.97 411.71 3121 412.61C3125.5 413.94 3127.72 415.48 3133.25 421.12L3140 428C3158.6 418.7 3164 415.77 3164 415.5C3164 415.23 3162.8 412.64 3161.34 409.75C3159.88 406.86 3156.28 402.14 3153.34 399.25C3150.14 396.1 3145.1 392.6 3140.75 390.5C3136.76 388.58 3130.01 386.33 3125.75 385.5C3121.49 384.68 3113.39 384.02 3107.75 384.06C3100.86 384.09 3095.04 384.76 3090 386.1ZM767.43 388.89C767.07 389.39 766.93 432.7 767.13 485.14L767.5 580.5L799 581L799 488L894 488L894 581L925.5 580.5C925.89 433.64 925.77 390.32 925.5 389.5C925.08 388.25 922.39 388 909.5 388L894 388L894 459L799 459L799 388C775.05 388 767.8 388.4 767.43 388.89ZM970 484.5L970 581L1078 581L1077.5 553.5L1001 553L1001 491L1078 491L1078 463L1001 463L1001 415L1078 415L1078 388L970 388L970 484.5ZM1268.13 388.82C1268.34 389.28 1287.63 434.27 1311 488.8C1334.38 543.33 1353.72 587.97 1354 587.99C1354.28 588.02 1373.4 544.14 1396.5 490.49C1419.6 436.84 1438.72 392.96 1439 392.99C1439.28 393.01 1453.45 415.41 1470.5 442.77L1501.5 492.5L1501.5 581L1533 581L1533 492C1580.71 417.21 1595.56 393.81 1596.78 391.75L1599 388L1567.5 388.09C1535.72 437.7 1524.7 455.65 1522.5 459.97C1520.3 464.3 1518.28 467.86 1518 467.89C1517.72 467.91 1515.21 463.79 1512.41 458.72C1509.61 453.65 1498.81 435.67 1488.41 418.77L1469.5 388.04L1407.66 388.5C1372.87 471.43 1360.91 500.79 1358.63 507.26C1356.36 513.73 1354.28 519.02 1354 519.01C1353.72 519 1352.12 514.61 1350.44 509.25C1348.75 503.89 1336.83 474.41 1323.94 443.74L1300.5 387.98C1275.13 388 1267.93 388.37 1268.13 388.82ZM1702 484.5L1702 581L1734 581L1734 388L1702 388L1702 484.5ZM1996.13 484.37L1996 581C2066.18 580.36 2085.87 579.75 2089.5 579.07C2092.8 578.45 2098.43 577 2102 575.85C2105.57 574.7 2111.43 572.24 2115 570.4C2118.57 568.56 2124.54 564.56 2128.25 561.52C2131.96 558.49 2137.24 553.19 2139.98 549.75C2142.72 546.31 2146.99 539.45 2149.47 534.5C2151.96 529.55 2155.2 521 2156.67 515.5C2159.16 506.21 2159.35 504.04 2159.37 485C2159.39 465.84 2159.22 463.84 2156.7 454.5C2155.22 449 2152.05 440.45 2149.66 435.5C2147.27 430.55 2143.11 423.78 2140.41 420.46C2137.71 417.13 2133.47 412.6 2131 410.38C2128.53 408.15 2124.47 404.95 2122 403.26C2119.53 401.57 2114.57 398.86 2111 397.24C2107.43 395.62 2101.35 393.52 2097.5 392.56C2093.65 391.6 2087.13 390.38 2083 389.85C2078.88 389.32 2057.67 388.63 2035.88 388.31L1996.26 387.74L1996.13 484.37ZM2195.03 448.22C2195.01 481.82 2195.46 513.37 2196.03 519.5C2196.59 525.55 2197.97 533.88 2199.08 538C2200.2 542.13 2202.47 548.2 2204.12 551.5C2205.77 554.8 2208.78 559.68 2210.81 562.34C2212.84 565 2217.2 569.19 2220.5 571.66C2223.8 574.13 2228.75 577.21 2231.5 578.5C2234.25 579.78 2239.88 581.78 2244 582.93C2248.13 584.08 2256.9 585.53 2263.5 586.15C2272.43 586.99 2278.31 586.98 2286.5 586.14C2292.55 585.51 2300.43 584.28 2304 583.4C2307.57 582.52 2314.32 579.97 2319 577.73C2325.55 574.6 2329.11 572.04 2334.52 566.58C2339.42 561.65 2342.67 557.22 2345.24 552C2347.28 547.88 2349.95 540.9 2351.19 536.5C2353.42 528.58 2353.45 527.82 2353.61 458.25L2353.78 388L2322.76 388C2322.38 513.3 2322.19 520.07 2320.59 525.5C2319.62 528.8 2317.4 534.15 2315.66 537.39C2313.92 540.63 2310.81 544.79 2308.75 546.64C2306.69 548.49 2302.64 551.18 2299.75 552.62C2296.86 554.06 2291.57 555.86 2288 556.6C2284.43 557.35 2278.35 557.97 2274.5 557.97C2270.65 557.97 2264.57 557.35 2261 556.61C2257.43 555.86 2252.47 554.23 2250 552.99C2247.53 551.75 2243.93 549.51 2242 548.02C2240.07 546.52 2237.06 543.1 2235.29 540.4C2233.53 537.71 2231.15 532.8 2230.01 529.5C2228.72 525.78 2227.55 518.75 2226.95 511C2226.41 504.13 2226.01 473.75 2226.05 443.5L2226.13 388.5L2195.05 387.95L2195.03 448.22ZM2525.92 388.75C2525.88 389.16 2525.85 394.45 2525.87 400.5C2525.89 406.55 2525.93 412.29 2525.95 413.25C2526 414.87 2527.9 415 2551.5 415L2577 415L2577 581L2608 581L2608 415L2659 415L2659 388C2555.93 388 2525.96 388.34 2525.92 388.75ZM2683.12 484.38L2683 581L2713 581C2713 496.43 2713.06 495.01 2714.89 495.25C2716.07 495.41 2725.58 507.34 2740.18 527C2753.05 544.33 2767.43 563.67 2772.12 570C2777.27 576.93 2781.42 581.59 2782.58 581.72C2783.64 581.84 2791.59 581.73 2800.25 581.47L2816 581C2792.27 549.61 2777.64 530.26 2768.19 517.75C2758.74 505.24 2751 494.66 2751.01 494.25C2751.01 493.84 2754.05 492.77 2757.76 491.87C2761.47 490.98 2766.74 489.18 2769.47 487.87C2772.21 486.57 2776.87 483.25 2779.83 480.5C2783.51 477.09 2786.28 473.27 2788.54 468.5C2790.36 464.65 2792.34 458.8 2792.93 455.5C2793.53 452.2 2794 445.9 2793.99 441.5C2793.98 437.1 2793.27 430.57 2792.42 427C2791.57 423.43 2789.67 418.02 2788.21 415C2786.74 411.98 2783.06 406.86 2780.02 403.62C2776.77 400.16 2772.14 396.56 2768.75 394.87C2765.59 393.29 2760.19 391.28 2756.75 390.39C2751.86 389.14 2743.18 388.68 2716.87 388.28L2683.23 387.77L2683.12 484.38ZM2835 484.5L2835 581L2867 581L2867 388L2835 388L2835 484.5ZM2912 484.5L2912 581L3020 581L3020 553L2944 553C2944 508.82 2943.9 494.99 2943.78 493.75L2943.56 491.5L3020 491L3020 463L2943.54 462.5C2943.66 457.85 2943.77 447.16 2943.85 435.75L2944 415L3020 415L3020 388L2912 388L2912 484.5Z" />
		<path id="Path 5" class="shp0" d="M2715.16 442.6L2715 470.5C2730.11 470.08 2737.43 469.47 2741 468.89C2744.57 468.3 2749.07 467.01 2751 466.02C2752.93 465.03 2755.23 463.38 2756.13 462.36C2757.03 461.34 2758.49 459.04 2759.38 457.25C2760.27 455.46 2761.28 451.19 2761.62 447.75C2761.96 444.31 2761.75 439.02 2761.14 436C2760.53 432.94 2758.7 428.62 2757.02 426.25C2755.36 423.91 2752.54 421.25 2750.75 420.34C2748.96 419.43 2745.25 418.08 2742.5 417.33C2739.75 416.58 2732.51 415.68 2726.41 415.33L2715.32 414.69L2715.16 442.6ZM2028.16 484.6L2028 553.5C2071.49 552.35 2080.3 551.71 2085 550.52C2088.57 549.62 2094.17 547.45 2097.43 545.69C2100.69 543.94 2106.04 539.8 2109.31 536.5C2113.6 532.16 2116.45 528.01 2119.57 521.5C2122.2 516.02 2124.55 509.18 2125.57 504C2126.85 497.48 2127.13 492.11 2126.76 481C2126.46 472.1 2125.63 464.18 2124.62 460.5C2123.71 457.2 2121.31 451.13 2119.27 447C2117.01 442.41 2113.23 437.04 2109.54 433.15C2105.28 428.68 2101.43 425.81 2096.5 423.44C2092.65 421.59 2085.9 419.35 2081.5 418.46C2076.34 417.42 2065.49 416.65 2050.91 416.27L2028.31 415.69L2028.16 484.6ZM1180.55 443.25C1180.34 443.94 1179.16 447.65 1177.94 451.5C1176.72 455.35 1171.36 468.18 1166.02 480C1160.69 491.82 1156.03 502.4 1155.67 503.5C1155.03 505.47 1155.43 505.5 1181.26 505.31C1202.31 505.16 1207.44 504.86 1207.2 503.81C1207.04 503.09 1202.49 492.6 1197.1 480.5C1191.7 468.4 1186.13 454.79 1184.73 450.25C1183.32 445.71 1181.9 442 1181.56 442C1181.22 442 1180.77 442.56 1180.55 443.25Z" />
	</g>
</svg>